<?xml version="1.0" encoding="UTF-8"?>
<svg version="1.1" xmlns="http://www.w3.org/2000/svg" width="766" height="766">
<path d="M0 0 C3.70978253 1.38378449 7.00969326 3.07357817 10.41015625 5.09765625 C11.99751587 6.0397998 11.99751587 6.0397998 13.61694336 7.00097656 C14.76555642 7.6879936 15.91407266 8.37517255 17.0625 9.0625 C18.26234966 9.77718868 19.46230276 10.49170373 20.66235352 11.20605469 C31.06593486 17.40782777 41.41848716 23.69374313 51.76371765 29.99220276 C57.82879925 33.68463029 63.90625865 37.35509238 70 41 C77.18191753 45.29584383 84.3366249 49.63493754 91.48434448 53.98742676 C92.0670108 54.34220093 92.64967712 54.6969751 93.25 55.0625 C93.83290802 55.4174353 94.41581604 55.77237061 95.01638794 56.13806152 C105.4669636 62.49749051 115.98033952 68.74723057 126.50939941 74.97561646 C135.36049049 80.21400391 144.15333809 85.52819275 152.87231445 90.98461914 C162.62658691 97.06182764 172.5339304 102.88438823 182.42773438 108.73046875 C183.10492523 109.13086868 183.78211609 109.53126862 184.47982788 109.94380188 C185.75847879 110.69952715 187.03760828 111.45444347 188.31729126 112.2084198 C190.92484032 113.74887793 193.47905071 115.31936714 196 117 C196.36914349 119.79172707 196.36914349 119.79172707 196.36076355 123.42861938 C196.36332682 124.09594727 196.3658901 124.76327515 196.36853105 125.4508251 C196.373491 127.69743938 196.35694055 129.94338856 196.34057617 132.18994141 C196.33973037 133.79612716 196.34020412 135.40231407 196.34190369 137.00849915 C196.34276691 141.37817695 196.32508841 145.74760934 196.30418181 150.11722994 C196.28546937 154.68030343 196.28366887 159.2433821 196.28010559 163.80648804 C196.27076911 172.45151351 196.24613371 181.0964256 196.21605712 189.74140108 C196.18256291 199.5816312 196.16603965 209.42186665 196.15097082 219.26213956 C196.1195855 239.5081564 196.06679394 259.75407107 196 280 C191.16583738 281.61446489 186.33141009 283.22813417 181.49675941 284.84113693 C179.85981145 285.38739323 178.22293001 285.93384892 176.58612251 286.48052597 C161.8691546 291.39558559 147.12282608 296.2147254 132.35314941 300.96914673 C129.64301331 301.84171978 126.93295842 302.71454359 124.22302246 303.58773804 C118.58405949 305.40462866 112.94502827 307.2213051 107.30529785 309.03581238 C99.37115157 311.58891442 91.44042195 314.15221091 83.51321411 316.72677612 C78.84963232 318.24042114 74.18421831 319.74835796 69.51837158 321.25500488 C67.35475709 321.95505128 65.19194143 322.65757185 63.02996826 323.3626709 C60.0689719 324.32790917 57.10522511 325.28417951 54.140625 326.23828125 C53.27919891 326.52155777 52.41777283 326.80483429 51.53024292 327.09669495 C43.87073132 329.54277446 43.87073132 329.54277446 40 329 C37.5703125 327.09375 37.5703125 327.09375 35.125 324.5 C33.92230469 323.24703125 33.92230469 323.24703125 32.6953125 321.96875 C30.70534692 319.80945834 28.79074092 317.5933207 26.87841797 315.36523438 C22.86239713 310.77179565 18.58605213 306.47701051 14.25 302.1875 C13.43305664 301.37434326 12.61611328 300.56118652 11.77441406 299.72338867 C9.18537329 297.14646703 6.59311263 294.57282375 4 292 C0.58037281 288.60712847 -2.83582149 285.21085343 -6.25 281.8125 C-7.02311523 281.04768311 -7.79623047 280.28286621 -8.59277344 279.49487305 C-12.0103283 276.09262178 -15.33957305 272.66912565 -18.48632812 269.01367188 C-22.42599231 264.43944981 -26.67953399 260.21319385 -30.96875 255.96875 C-32.22745911 254.71572083 -32.22745911 254.71572083 -33.51159668 253.43737793 C-36.171969 250.78912914 -38.83556013 248.14415594 -41.5 245.5 C-45.01337273 242.01337399 -48.52331971 238.52335074 -52.03125 235.03125 C-52.82623901 234.24455933 -53.62122803 233.45786865 -54.44030762 232.64733887 C-58.63583962 228.47009777 -62.64744049 224.20595975 -66.50894165 219.71813965 C-68.25173367 217.70992845 -70.07654282 215.8090903 -71.96484375 213.9375 C-72.94614258 212.96103516 -72.94614258 212.96103516 -73.94726562 211.96484375 C-74.60404297 211.31644531 -75.26082031 210.66804687 -75.9375 210 C-76.62134766 209.32066406 -77.30519531 208.64132812 -78.00976562 207.94140625 C-79.67087159 206.29191641 -81.33428513 204.6448332 -83 203 C-78.74196886 191.33041783 -74.11406268 179.83643328 -69.34375 168.36767578 C-67.6581523 164.31508292 -65.97850653 160.26003132 -64.29852295 156.20510864 C-63.43816935 154.12855509 -62.57753302 152.05211866 -61.71661377 149.97579956 C-57.78617082 140.49403189 -53.88927314 130.99871127 -50 121.5 C-44.19247253 107.32262801 -38.35341128 93.1584862 -32.5 79 C-24.84854543 60.49220699 -17.233083 41.96992229 -9.64038086 23.43795776 C-6.43677949 15.62124694 -3.21897635 7.81038925 0 0 Z " fill="#FFFFFF" transform="translate(387,181)"/>
<path d="M0 0 C0.20187424 0.57025909 0.40374847 1.14051819 0.61174011 1.72805786 C2.73710289 7.73171069 4.86273919 13.73526662 6.98852539 19.73876953 C7.77895834 21.9711672 8.56932447 24.20358853 9.35961914 26.43603516 C10.12732792 28.60465464 10.89531993 30.77317388 11.66360474 32.94158936 C12.41347165 35.06047451 13.16159441 37.17997776 13.90792847 39.30010986 C15.4619198 43.70725717 17.0233629 48.10624067 18.70166016 52.46777344 C19.16749512 53.69270508 19.63333008 54.91763672 20.11328125 56.1796875 C20.50942627 57.18499512 20.90557129 58.19030273 21.3137207 59.22607422 C22.787103 65.18145295 20.25670753 70.30301541 17.96484375 75.74609375 C17.65500549 76.49629791 17.34516724 77.24650208 17.02593994 78.0194397 C16.00222542 80.49455997 14.9698147 82.96595579 13.9375 85.4375 C13.21003223 87.19235303 12.48323728 88.94748511 11.75708008 90.70288086 C10.25013244 94.34433559 8.74030413 97.98457595 7.22851562 101.62402344 C4.17940573 108.97104227 1.16865705 116.33369722 -1.84371948 123.6958313 C-8.43148435 139.78931856 -15.06887216 155.86224284 -21.71240234 171.93276978 C-26.93148527 184.55841511 -32.13792991 197.18909264 -37.31997681 209.82998657 C-38.3004602 212.22064404 -39.28225437 214.61075919 -40.2644043 217.00073242 C-43.19663259 224.13939952 -46.11870649 231.28167332 -49.00349426 238.43966675 C-50.29406849 241.63919683 -51.5914738 244.83593323 -52.88973999 248.03234863 C-53.4991495 249.53820706 -54.10519564 251.04543152 -54.70767212 252.55407715 C-55.53245796 254.61896343 -56.36841624 256.67898083 -57.20703125 258.73828125 C-57.6760083 259.90399658 -58.14498535 261.06971191 -58.62817383 262.27075195 C-60 265 -60 265 -63 267 C-65.12273312 267.60808849 -65.12273312 267.60808849 -67.62376404 268.1204071 C-68.5729068 268.31812714 -69.52204956 268.51584717 -70.49995422 268.71955872 C-71.53951767 268.9290062 -72.57908112 269.13845367 -73.65014648 269.35424805 C-74.74631287 269.58047852 -75.84247925 269.80670898 -76.97186279 270.03979492 C-80.60357243 270.7872876 -84.23720896 271.52487857 -87.87109375 272.26171875 C-90.39077947 272.77658891 -92.91039633 273.29179617 -95.4299469 273.80732727 C-100.71419874 274.88685195 -105.99942392 275.96142722 -111.28540039 277.0324707 C-117.39542224 278.27059961 -123.50307547 279.51993415 -129.60966247 280.77488488 C-135.48511422 281.98190085 -141.36250056 283.17919056 -147.24073982 284.37256813 C-149.74159252 284.8814491 -152.2418955 285.39303921 -154.74163628 285.90735435 C-158.23294396 286.62456592 -161.72631656 287.3306841 -165.22045898 288.03393555 C-166.2579982 288.24945572 -167.29553741 288.46497589 -168.36451721 288.68702698 C-169.3164798 288.87628754 -170.26844238 289.0655481 -171.24925232 289.26054382 C-172.48782816 289.51244492 -172.48782816 289.51244492 -173.75142574 289.76943493 C-176.17724574 290.01817448 -177.72551653 289.86608016 -180 289 C-181.68962233 287.11473719 -183.15223854 285.29247527 -184.625 283.25 C-185.51798924 282.05060258 -186.41122488 280.85138858 -187.3046875 279.65234375 C-187.75553711 279.03987793 -188.20638672 278.42741211 -188.67089844 277.79638672 C-190.66080791 275.10686543 -192.70561777 272.46075091 -194.75 269.8125 C-195.1517041 269.29010742 -195.5534082 268.76771484 -195.96728516 268.22949219 C-200.23073599 262.68618463 -204.53059654 257.17122349 -208.82714844 251.65356445 C-213.03039666 246.25338365 -217.20793305 240.834403 -221.375 235.40625 C-224.56627975 231.25758632 -227.784213 227.12967519 -231 223 C-235.81351723 216.81853877 -240.60424879 210.62078118 -245.375 204.40625 C-248.56627991 200.25758611 -251.78424136 196.12969753 -255 192 C-261.48226799 183.6744784 -267.92074101 175.31663422 -274.34375 166.9453125 C-279.95617973 159.63822055 -285.60200372 152.35780896 -291.26660156 145.09106445 C-291.83733398 144.35847412 -292.40806641 143.62588379 -292.99609375 142.87109375 C-293.50325928 142.22068115 -294.0104248 141.57026855 -294.53295898 140.90014648 C-295.01708252 140.27309814 -295.50120605 139.6460498 -296 139 C-296.83277466 137.95066284 -296.83277466 137.95066284 -297.68237305 136.88012695 C-299 135 -299 135 -299.0859375 133.046875 C-297.38264257 129.83634787 -294.59804386 128.18215736 -291.625 126.25 C-290.95944092 125.81606934 -290.29388184 125.38213867 -289.6081543 124.93505859 C-284.52738061 121.73902198 -279.30829923 119.0328159 -273.8125 116.625 C-273.1333252 116.31594727 -272.45415039 116.00689453 -271.75439453 115.68847656 C-256.9217582 109.54738505 -240.81301938 108.38418654 -224.96484375 108.66015625 C-223.13070256 108.67703171 -221.29654913 108.69261496 -219.46238708 108.70704651 C-213.30744758 108.76647433 -207.15399605 108.87886538 -201 109 C-199.31368343 109.03236881 -199.31368343 109.03236881 -197.59329987 109.06539154 C-180.20473849 109.40404179 -162.81969957 109.85375623 -145.43450928 110.33239746 C-140.18709032 110.47483438 -134.93948395 110.60958082 -129.69186497 110.74441433 C-124.61245206 110.87577932 -119.53316245 111.01148009 -114.45390129 111.14857674 C-112.04295087 111.21321151 -109.63196654 111.27659485 -107.22094917 111.33868217 C-103.89268716 111.42511587 -100.56463386 111.51728917 -97.23657227 111.61108398 C-96.25252411 111.63554092 -95.26847595 111.65999786 -94.25460815 111.68519592 C-93.35203781 111.71181305 -92.44946747 111.73843018 -91.51954651 111.76585388 C-90.73840768 111.78705512 -89.95726885 111.80825636 -89.15245914 111.83010006 C-87.00253415 111.99979997 -85.07198608 112.41446595 -83 113 C-83.02356567 112.12601563 -83.02356567 112.12601563 -83.04760742 111.234375 C-83.77748454 79.89585367 -75.69083299 53.10357953 -54.04296875 29.76171875 C-48.24104951 23.69042135 -42.16646019 18.41739347 -35 14 C-33.96488281 13.34386719 -32.92976563 12.68773438 -31.86328125 12.01171875 C-22.62994911 6.33912732 -11.01737955 0 0 0 Z " fill="#FFFFFF" transform="translate(351,112)"/>
<path d="M0 0 C0.8561792 0.86028809 1.7123584 1.72057617 2.59448242 2.60693359 C3.06053391 3.0734433 3.52658539 3.539953 4.00675964 4.02059937 C4.99158462 5.0084385 5.97398498 5.99870004 6.95410156 6.99121094 C8.4295316 8.48470157 9.91260857 9.9702286 11.3972168 11.45458984 C15.35144819 15.42906002 19.25307971 19.40996308 22.91162109 23.66113281 C26.9347018 28.29237066 31.24739243 32.59831094 35.60620117 36.91162109 C36.44534058 37.74697388 37.28447998 38.58232666 38.14904785 39.44299316 C40.80942017 42.09124196 43.4730113 44.73621516 46.13745117 47.38037109 C49.6508239 50.86699711 53.16077088 54.35702036 56.66870117 57.84912109 C57.46369019 58.63581177 58.2586792 59.42250244 59.07775879 60.23303223 C63.17430032 64.31171441 67.06919621 68.47781376 70.83972168 72.85778809 C74.2601446 76.70602515 77.94785495 80.29146181 81.60620117 83.91162109 C82.44534058 84.74697388 83.28447998 85.58232666 84.14904785 86.44299316 C86.80942017 89.09124196 89.4730113 91.73621516 92.13745117 94.38037109 C95.6508239 97.86699711 99.16077088 101.35702036 102.66870117 104.84912109 C103.46369019 105.63581177 104.2586792 106.42250244 105.07775879 107.23303223 C117.49566739 119.59680352 117.49566739 119.59680352 119.63745117 123.88037109 C118.76391602 126.38525391 118.76391602 126.38525391 117.34838867 129.58349609 C116.82647949 130.77402588 116.30457031 131.96455566 115.7668457 133.19116211 C115.1820882 134.50424988 114.5972887 135.81731896 114.01245117 137.13037109 C113.40728938 138.50492356 112.80297388 139.87984889 112.19946289 141.25512695 C110.95098106 144.09831399 109.69890423 146.93987491 108.4440918 149.78027344 C105.85200006 155.65414455 103.30866837 161.54900579 100.76245117 167.44287109 C99.69774711 169.90137881 98.63270955 172.3597392 97.56713867 174.81787109 C97.13239731 175.82090019 97.13239731 175.82090019 96.68887329 176.8441925 C93.80206033 183.50326788 90.91107531 190.16053088 88.02026367 196.81787109 C87.00186485 199.16348984 85.98347299 201.50911162 84.96508789 203.85473633 C83.44474032 207.35650572 81.92423187 210.85820471 80.40313721 214.35964966 C74.10836479 228.84975944 67.84351797 243.35202779 61.63745117 257.88037109 C34.4317659 256.74690919 9.93310682 244.57833955 -8.67504883 224.89208984 C-12.66316699 220.51389092 -16.10204725 215.81896377 -19.36254883 210.88037109 C-19.88204102 210.12884766 -20.4015332 209.37732422 -20.93676758 208.60302734 C-34.22816138 188.19498174 -38.30644956 162.74744613 -35.36254883 138.88037109 C-36.44890625 138.86055176 -37.53526367 138.84073242 -38.65454102 138.8203125 C-66.40058475 138.30769837 -94.14272825 137.66166003 -121.88417053 136.94554901 C-124.41051161 136.880744 -126.93687876 136.81706805 -129.46325684 136.75372314 C-133.51110035 136.65207134 -137.55885246 136.54730315 -141.60655785 136.44029617 C-143.10043019 136.40122386 -144.59432748 136.36309015 -146.08825111 136.32603073 C-156.19971369 136.07402675 -166.27252077 135.57524278 -176.36254883 134.88037109 C-171.66960763 123.98449265 -166.74877226 113.22330165 -161.62866211 102.52148438 C-159.53575897 98.1463404 -157.4519698 93.76685285 -155.36645508 89.38818359 C-154.94510284 88.50414856 -154.52375061 87.62011353 -154.08963013 86.70928955 C-150.32848332 78.81625911 -146.58813002 70.91359248 -142.86376953 63.00314331 C-141.87126474 60.89885043 -140.87414932 58.79679361 -139.8762207 56.69506836 C-136.87495186 50.35660857 -133.95892874 44.00648259 -131.24145508 37.54052734 C-130.76063477 36.41839844 -130.27981445 35.29626953 -129.78442383 34.14013672 C-128.91137354 32.0867124 -128.06393899 30.02210098 -127.24926758 27.94482422 C-126.86512695 27.04828125 -126.48098633 26.15173828 -126.08520508 25.22802734 C-125.77333252 24.45467041 -125.46145996 23.68131348 -125.14013672 22.88452148 C-120.39050621 17.52952672 -110.21680095 16.86032899 -103.49023438 15.48852539 C-102.44195969 15.27029617 -101.393685 15.05206696 -100.31364441 14.82722473 C-96.87673082 14.11366505 -93.4381662 13.40851644 -89.99926758 12.70458984 C-87.60030658 12.21093785 -85.20136584 11.71718737 -82.80244446 11.2233429 C-77.78937906 10.19302937 -72.7753516 9.16754596 -67.76074219 8.14477539 C-61.32743375 6.83170327 -54.89790999 5.50099193 -48.46911907 4.16600323 C-43.52370523 3.14205394 -38.57586845 2.1302293 -33.62726784 1.12180519 C-31.25443976 0.63618215 -28.88251923 0.1461029 -26.51154137 -0.3484745 C-23.20611337 -1.03666936 -19.89766326 -1.70781842 -16.58789062 -2.37475586 C-15.60653137 -2.58294952 -14.62517212 -2.79114319 -13.61407471 -3.00564575 C-12.26224342 -3.27268562 -12.26224342 -3.27268562 -10.88310242 -3.54512024 C-10.10204982 -3.70530293 -9.32099722 -3.86548563 -8.51627636 -4.03052235 C-4.73448344 -4.18698715 -2.73559211 -2.45431546 0 0 Z " fill="#FFFFFF" transform="translate(298.362548828125,397.11962890625)"/>
<path d="M0 0 C3.97128431 1.81523355 6.45470549 4.39410454 9.3125 7.625 C10.04533203 8.43904297 10.04533203 8.43904297 10.79296875 9.26953125 C13.9391296 12.77358871 17.04081811 16.31632859 20.125 19.875 C22.54550142 22.61823494 25.02204178 25.30881243 27.5 28 C31.1441694 31.95859723 34.73913779 35.95176832 38.265625 40.015625 C41.79500714 44.05374691 45.40634226 48.01914681 49 52 C51.25296269 54.50242568 53.50503707 57.00561324 55.75390625 59.51171875 C57.2311083 61.14820171 58.71787242 62.77611251 60.21484375 64.39453125 C75.58358535 81.11377738 86.79463089 98.72374792 92 121 C92.24363281 121.97453125 92.48726562 122.9490625 92.73828125 123.953125 C97.92824272 148.66722726 92.80852701 176.49097469 80.6875 198.4375 C80.35733887 199.03892822 80.02717773 199.64035645 79.68701172 200.26000977 C73.30918623 211.18177647 64.15553496 220.13921076 55.24609375 228.984375 C54.13432256 230.09494952 53.02292581 231.205899 51.91188049 232.31719971 C49.60132287 234.62620736 47.28749181 236.93186244 44.97094727 239.23486328 C42.02193267 242.1668404 39.0795926 245.10540605 36.13946438 248.04629135 C33.85162019 250.33386201 31.56116709 252.61880548 29.26985359 254.9029007 C28.18455873 255.98504548 27.09984024 257.06776869 26.01574516 258.15111542 C20.66515449 263.49396297 15.29755905 268.7712644 9.53675842 273.67608643 C8.31103342 274.73204548 7.14399547 275.85600453 6 277 C2.7582468 276.6413934 0.68795899 275.26342425 -1.87890625 273.33203125 C-2.62527344 272.77580078 -3.37164063 272.21957031 -4.140625 271.64648438 C-5.33945312 270.73866211 -5.33945312 270.73866211 -6.5625 269.8125 C-8.28242789 268.52717755 -10.00248349 267.24202597 -11.72265625 265.95703125 C-13.03967529 264.96823975 -13.03967529 264.96823975 -14.38330078 263.95947266 C-18.40420574 260.94848337 -22.45239436 257.97493951 -26.5 255 C-28.08220361 253.83486944 -29.66423429 252.66950401 -31.24609375 251.50390625 C-32.02968262 250.92656738 -32.81327148 250.34922852 -33.62060547 249.75439453 C-36.00989519 247.992704 -38.39770073 246.22901902 -40.78515625 244.46484375 C-42.3774846 243.28890058 -43.9699319 242.11311846 -45.5625 240.9375 C-46.33650146 240.36612305 -47.11050293 239.79474609 -47.90795898 239.20605469 C-54.36556298 234.44817446 -60.86541164 229.75005781 -67.39086914 225.08569336 C-68.09848389 224.5778833 -68.80609863 224.07007324 -69.53515625 223.546875 C-70.157854 223.10182617 -70.78055176 222.65677734 -71.42211914 222.19824219 C-73 221 -73 221 -75 219 C-75.24888897 216.70536137 -75.24888897 216.70536137 -75.24723816 213.77809143 C-75.25143265 212.67003647 -75.25562714 211.56198151 -75.25994873 210.42034912 C-75.25432922 209.19825745 -75.24870972 207.97616577 -75.24291992 206.71704102 C-75.24481827 205.43363327 -75.24671661 204.15022552 -75.24867249 202.82792664 C-75.25353638 199.29324013 -75.24583651 195.75867919 -75.23571944 192.22400784 C-75.2269175 188.50236234 -75.22869712 184.78072056 -75.2290802 181.05906677 C-75.22814153 174.78162556 -75.21944712 168.50423244 -75.20581055 162.22680664 C-75.19025385 155.04048255 -75.18480648 147.85421174 -75.1855461 140.66787201 C-75.18623181 132.95688019 -75.17921541 125.2459081 -75.1700995 117.53492236 C-75.16800104 115.35002293 -75.16726278 113.16512685 -75.16686058 110.98022652 C-75.16372752 102.92803919 -75.12903838 94.87714867 -75.04046249 86.82533646 C-75.01313609 84.24188982 -74.99267877 81.65836272 -74.97858047 79.07481003 C-74.95183381 75.32748603 -74.88984532 71.58238381 -74.81762695 67.83569336 C-74.81464946 66.71972306 -74.81167196 65.60375277 -74.80860424 64.45396519 C-74.58366503 55.98214326 -74.58366503 55.98214326 -71.43965149 52.49316406 C-69.34814759 50.79745463 -67.59776938 49.41242631 -65.1796875 48.28515625 C-59.94036663 45.56616013 -55.50298214 41.88451655 -50.875 38.25 C-43.38373982 32.51764483 -35.81711111 26.89427007 -28.20727539 21.32080078 C-18.70564121 14.34527177 -9.35462416 7.17080182 0 0 Z " fill="#FFFFFF" transform="translate(672,244)"/>
<path d="M0 0 C0.98286987 0.74781738 0.98286987 0.74781738 1.9855957 1.51074219 C2.73389648 2.07212891 3.48219727 2.63351562 4.25317383 3.21191406 C5.44523437 4.12553711 5.44523437 4.12553711 6.66137695 5.05761719 C8.37297007 6.34493549 10.08522515 7.63137409 11.7980957 8.91699219 C13.09626221 9.89635742 13.09626221 9.89635742 14.4206543 10.89550781 C18.2345057 13.75170252 22.10205413 16.53080767 25.97387695 19.30761719 C35.36296918 26.06566616 44.67017678 32.9327346 53.97387695 39.80761719 C57.47308911 42.39201958 60.97328621 44.97508255 64.47387695 47.55761719 C65.28139404 48.15437256 66.08891113 48.75112793 66.92089844 49.3659668 C67.67056885 49.91905518 68.42023926 50.47214355 69.19262695 51.04199219 C70.18166016 51.77240723 70.18166016 51.77240723 71.19067383 52.51757812 C72.75855681 53.65184616 74.36373149 54.73418688 75.97387695 55.80761719 C74.61040904 58.94985368 73.16821815 60.73321523 70.52270508 62.88769531 C65.64530535 67.02046223 61.16726257 71.50002921 56.66835022 76.03797913 C55.15575363 77.56355696 53.63986494 79.08579805 52.12316895 80.6072998 C48.90388583 83.83790672 45.68857584 87.07244942 42.47387695 90.30761719 C38.74312046 94.06212845 35.01066944 97.81492332 31.27394104 101.56349182 C29.79417139 103.04965408 28.3174913 104.53883714 26.84094238 106.02819824 C22.32656477 110.55888115 17.76512031 114.92922159 12.91036987 119.09152222 C9.21314132 122.36795832 5.79500139 125.92704171 2.3371582 129.45214844 C0.69097381 131.11585677 -0.95552044 132.77925856 -2.60229492 134.44238281 C-5.15480965 137.02570671 -7.70492395 139.61125897 -10.24951172 142.20239258 C-33.95036824 166.31247914 -33.95036824 166.31247914 -48.40112305 173.62011719 C-49.11534424 173.9870166 -49.82956543 174.35391602 -50.56542969 174.73193359 C-66.4411248 182.66714662 -83.06138462 186.05786692 -100.72143555 185.94042969 C-101.78092407 185.9367186 -102.8404126 185.93300751 -103.93200684 185.92918396 C-119.61813435 185.83074096 -135.29994508 185.365918 -150.97979736 184.93878174 C-154.37045042 184.84734895 -157.76119565 184.75964401 -161.15194702 184.67194557 C-179.78312003 184.18893068 -198.40649823 183.63618712 -217.02612305 182.80761719 C-215.22257171 177.15640868 -213.22922704 171.68170727 -210.82299805 166.26074219 C-210.5127066 165.55256348 -210.20241516 164.84438477 -209.88272095 164.11474609 C-209.20686736 162.57334671 -208.52924547 161.0327217 -207.85003662 159.49279785 C-206.35297039 156.09808638 -204.86508985 152.69937059 -203.37643433 149.30096436 C-202.56447605 147.44762211 -201.75206627 145.59447762 -200.9392395 143.74151611 C-197.22380435 135.26963447 -193.52442864 126.79077896 -189.85224915 118.30004883 C-187.38124858 112.58965161 -184.88571813 106.89282415 -182.33447266 101.21777344 C-177.92433345 91.34064516 -173.76270145 81.73425867 -171.0534668 71.24511719 C-165.51283017 50.95097424 -165.51283017 50.95097424 -156.72717285 45.33917236 C-143.46372259 38.38776375 -128.479992 35.14722121 -114.03637695 31.59960938 C-104.18825316 29.14668749 -94.59732121 25.94519943 -84.96875 22.75469971 C-79.86902632 21.07633661 -74.74927311 19.46145509 -69.6315918 17.83886719 C-61.91260087 15.38259158 -54.20491217 12.89379586 -46.50585938 10.37571716 C-41.86291405 8.85785726 -37.2172276 7.34848762 -32.5713501 5.83963013 C-30.34906287 5.1152347 -28.12812783 4.38667664 -25.90863037 3.65377808 C-22.84047239 2.64102744 -19.76795017 1.64275092 -16.6940918 0.64746094 C-15.78508621 0.34316162 -14.87608063 0.0388623 -13.93952942 -0.2746582 C-8.61877331 -1.97855362 -5.05143604 -2.97279354 0 0 Z " fill="#FFFFFF" transform="translate(591.026123046875,477.1923828125)"/>
<path d="M0 0 C0.98109238 -0.00272919 1.96218475 -0.00545837 2.9730072 -0.00827026 C6.2438552 -0.01235865 9.51434395 0.0004728 12.78515625 0.015625 C13.92317688 0.01806213 15.06119751 0.02049927 16.23370361 0.02301025 C37.9032604 0.07628719 59.56436166 0.52841321 81.2262764 1.07795715 C83.70556842 1.14019604 86.18491081 1.19991529 88.66427612 1.25915527 C92.62368836 1.35473029 96.58276037 1.4595683 100.54174995 1.57125473 C101.9979333 1.61135119 103.45418665 1.64900385 104.91050529 1.68384171 C138.87468953 2.50988812 168.48042403 12.10101295 192.37109375 36.8671875 C197.39913517 42.19057742 202.26017852 47.66670803 207.04296875 53.2109375 C209.43547472 55.93487287 211.89175044 58.59902486 214.34765625 61.265625 C217.99187786 65.224173 221.58679529 69.21739475 225.11328125 73.28125 C228.64266339 77.31937191 232.25399851 81.28477181 235.84765625 85.265625 C237.34794304 86.93203351 238.84794497 88.59869853 240.34765625 90.265625 C241.09015625 91.090625 241.83265625 91.915625 242.59765625 92.765625 C249.34765625 100.265625 249.34765625 100.265625 251.58984375 102.7578125 C253.11473869 104.45155394 254.64081027 106.14423669 256.16796875 107.8359375 C272.84765625 126.32494703 272.84765625 126.32494703 272.84765625 129.265625 C271.43676758 130.52392578 271.43676758 130.52392578 269.4296875 131.9609375 C268.68050049 132.50379395 267.93131348 133.04665039 267.15942383 133.60595703 C266.33466553 134.19489746 265.50990723 134.78383789 264.66015625 135.390625 C262.90900595 136.65987281 261.15904866 137.93076786 259.41015625 139.203125 C258.03730469 140.20085937 258.03730469 140.20085937 256.63671875 141.21875 C252.09858253 144.54925894 247.62926843 147.96835042 243.16015625 151.390625 C228.1742627 162.84488077 213.04884726 174.0988261 197.84765625 185.265625 C190.53372581 181.80319015 183.62135924 177.83425837 176.7310791 173.59698486 C174.91377761 172.47941699 173.09348589 171.3668603 171.27246094 170.25537109 C168.72054062 168.69716578 166.16980033 167.13705859 163.62011719 165.57519531 C157.78623792 162.00226637 151.94323268 158.44438423 146.09765625 154.890625 C145.52889771 154.54464264 144.96013916 154.19866028 144.37414551 153.8421936 C134.18604244 147.64750465 123.93563574 141.56091821 113.67297363 135.49078369 C103.62112203 129.54237213 93.64997739 123.48022782 83.72094727 117.32836914 C75.09320271 111.99749675 66.38862985 106.804398 57.66015625 101.640625 C45.49685024 94.44343769 33.37410844 87.18739881 21.33398438 79.78515625 C18.89448436 78.29424422 16.4432122 76.82470582 13.98828125 75.359375 C12.52457216 74.47423513 11.06101972 73.58883615 9.59765625 72.703125 C8.94732422 72.32148193 8.29699219 71.93983887 7.62695312 71.54663086 C1.84529809 68.01173704 -0.1302338 63.76875909 -2.32885742 57.52905273 C-2.72904587 56.40115829 -3.12923431 55.27326385 -3.54154968 54.1111908 C-4.17453728 52.29851463 -4.17453728 52.29851463 -4.8203125 50.44921875 C-5.26412653 49.18788664 -5.70824868 47.92666291 -6.15266418 46.6655426 C-7.07995657 44.03000207 -8.00317655 41.39307947 -8.92358398 38.75512695 C-10.10251678 35.37742894 -11.29207316 32.00358612 -12.4847517 28.63072109 C-13.4028585 26.03032862 -14.31505943 23.42789437 -15.22551918 20.82481575 C-15.87353416 18.97569464 -16.52671914 17.12838794 -17.17997742 15.28111267 C-17.57070938 14.15637039 -17.96144135 13.03162811 -18.36401367 11.87280273 C-18.71026291 10.88416733 -19.05651215 9.89553192 -19.41325378 8.87693787 C-20.15234375 6.265625 -20.15234375 6.265625 -20.15234375 2.265625 C-13.35624439 0.6760598 -6.97023962 -0.03094577 0 0 Z " fill="#FFFFFF" transform="translate(390.15234375,102.734375)"/>
<path d="M0 0 C3.16402141 1.36196778 4.88801175 2.76320523 6.9609375 5.5 C7.50782227 6.21325439 8.05470703 6.92650879 8.61816406 7.66137695 C9.48779785 8.81899536 9.48779785 8.81899536 10.375 10 C11.62737994 11.63949422 12.87999072 13.27881214 14.1328125 14.91796875 C14.77250977 15.76020996 15.41220703 16.60245117 16.07128906 17.47021484 C19.09948259 21.44213146 22.17645187 25.37565266 25.25 29.3125 C29.9804474 35.38949529 34.68552173 41.48508751 39.375 47.59375 C42.56627975 51.74241368 45.784213 55.87032481 49 60 C53.81351723 66.18146123 58.60424879 72.37921882 63.375 78.59375 C66.56627991 82.74241389 69.78424136 86.87030247 73 91 C79.48226799 99.3255216 85.92074101 107.68336578 92.34375 116.0546875 C93.53484375 117.60542969 93.53484375 117.60542969 94.75 119.1875 C95.35158936 119.97096802 95.35158936 119.97096802 95.96533203 120.77026367 C99.05284047 124.78474183 102.16677754 128.77810779 105.28588867 132.76806641 C107.6672543 135.81993204 110.03663573 138.88096602 112.40380859 141.94384766 C113.82729967 143.77753409 115.2652636 145.59866042 116.70703125 147.41796875 C117.44308594 148.37316406 118.17914063 149.32835937 118.9375 150.3125 C119.87916016 151.51326172 119.87916016 151.51326172 120.83984375 152.73828125 C122.36814337 155.71769364 121.88011369 156.79077059 121 160 C120.04349868 162.26758143 119.02364773 164.50881296 117.96484375 166.73046875 C117.65486954 167.38509598 117.34489532 168.03972321 117.02552795 168.71418762 C116.00127036 170.87441499 114.96933644 173.0308838 113.9375 175.1875 C113.21230189 176.71391314 112.48770253 178.24061087 111.76367188 179.76757812 C110.25866805 182.9403995 108.75109177 186.11197909 107.24169922 189.28271484 C104.13408059 195.81575204 101.0578697 202.36350741 97.9815979 208.91134644 C96.6689382 211.70443651 95.35444647 214.49666264 94.03996277 217.28889465 C91.25483689 223.20513142 88.47215005 229.12250696 85.69250488 235.0413208 C84.23072072 238.15375695 82.76821942 241.26585587 81.30566406 244.37792969 C80.61129564 245.85595165 79.91727534 247.33413723 79.22363281 248.8125 C75.8916191 255.91383384 72.55869292 263.00842654 69 270 C40.7214618 270.93454165 14.19951444 262.03069744 -6.75390625 242.59375 C-13.3094973 236.30186486 -19.37824016 229.8712632 -24 222 C-24.35400879 221.39849121 -24.70801758 220.79698242 -25.07275391 220.17724609 C-34.72858374 203.53135595 -40.37511228 186.30676018 -40.23046875 166.921875 C-40.2304184 165.88833893 -40.23036804 164.85480286 -40.23031616 163.78994751 C-40.22672309 160.44317376 -40.20782488 157.09671071 -40.1875 153.75 C-40.17995457 151.42138768 -40.17271478 149.09277435 -40.16577148 146.76416016 C-40.10868899 132.63156347 -39.925558 118.50307141 -39.5625 104.375 C-39.54303314 103.61022339 -39.52356628 102.84544678 -39.50350952 102.05749512 C-39.28589443 93.83171173 -38.96557626 85.61237597 -38.54296875 77.39453125 C-38.50796768 76.6673288 -38.47296661 75.94012634 -38.43690491 75.19088745 C-36.93147169 47.72907331 -24.42031329 21.79387906 -4.09765625 3.265625 C-2.75873585 2.14408227 -1.38438671 1.06491285 0 0 Z " fill="#FFFFFF" transform="translate(40,254)"/>
</svg>
